<svg width="27" height="26" viewBox="0 0 27 26" fill="none" xmlns="http://www.w3.org/2000/svg">
<path d="M10.68 23.3397L15.18 20.0297L22.27 20.0097C23.26 19.8797 23.98 19.0197 24.02 18.0397V8.53968C24.3 7.76968 25.26 7.86968 25.35 8.69968C25.2 11.7797 25.55 15.0297 25.35 18.0897C25.24 19.7697 24.1 21.0797 22.42 21.3297L15.55 21.3497L10.27 25.2897C10.03 25.3897 9.68 25.3297 9.51 25.1397C9.48 25.1097 9.34 24.8797 9.34 24.8597V21.3297H2.87C1.62 21.3297 0.11 19.7497 0.02 18.5097L0 5.68968C0.18 4.03968 1.49 2.79968 3.14 2.66968H15.25C16.13 2.68968 16.27 3.79968 15.42 3.99968H3.21C2.38 4.08968 1.66 4.62968 1.41 5.42968C1.24 9.66968 1.39 13.9397 1.34 18.1897C1.43 19.1197 2.13 19.8397 3.04 19.9897H9.98C10.26 19.9797 10.67 20.3097 10.67 20.5797V23.3297L10.68 23.3397Z" fill="black"/>
<path d="M23.2199 0.00967644C23.4099 -0.0303236 23.6099 0.0596764 23.7599 0.169676C24.1099 0.419676 26.2599 2.56968 26.5099 2.91968C26.6699 3.14968 26.7399 3.40968 26.5899 3.65968L18.4699 11.8197C18.2999 11.9397 18.2499 11.9797 18.0399 11.9997C17.4099 12.0597 15.8799 12.0697 15.2599 11.9997C14.9299 11.9597 14.7199 11.7397 14.6799 11.4197C14.6099 10.7997 14.6199 9.27968 14.6799 8.63968C14.6799 8.54968 14.6799 8.44968 14.7499 8.36968L22.8999 0.199676C22.9899 0.129676 23.1099 0.0396764 23.2199 0.0196764V0.00967644ZM16.0099 10.6697H17.7599L25.0099 3.36968L23.3199 1.67968L16.0099 8.97968V10.6697Z" fill="black"/>
<path d="M4.5501 14.6797H20.6501C21.5101 14.7597 21.5801 15.7997 20.7601 15.9997H4.5901C3.8101 15.8697 3.8101 14.8897 4.5501 14.6797Z" fill="black"/>
<path d="M4.5501 6.6897H11.3201C12.1801 6.7697 12.2501 7.8197 11.4301 8.0097H4.5401C3.8001 7.8097 3.8401 6.8997 4.5401 6.6897H4.5501Z" fill="black"/>
<path d="M4.5501 10.6897H11.3201C12.1801 10.7697 12.2501 11.8197 11.4301 12.0097H4.5401C3.8001 11.8097 3.8401 10.8997 4.5401 10.6897H4.5501Z" fill="black"/>
</svg>
