<svg width="454" height="891" viewBox="0 0 454 891" fill="none" xmlns="http://www.w3.org/2000/svg">
<path d="M261.096 540.57C268.355 540.57 275.371 541.597 282.029 543.52L282.143 543.437C284.912 544.307 287.738 545.028 290.621 545.6C290.945 545.666 291.27 545.733 291.603 545.79C291.733 545.815 291.863 545.84 291.993 545.857C300.876 547.473 310.174 547.589 319.577 545.981C363.718 538.432 393.503 495.789 386.106 450.743C379.585 411.025 346.333 382.709 308.298 381.731C308.193 381.731 308.087 381.731 307.973 381.731C307.494 381.723 307.007 381.715 306.528 381.715C306.374 381.715 306.228 381.715 306.073 381.715C305.87 381.715 305.659 381.715 305.456 381.715C305.253 381.715 305.05 381.715 304.847 381.715C299.333 381.798 293.958 382.444 288.769 383.596L288.607 383.43C248.501 387.913 211.473 359.705 204.717 318.587C203.515 311.287 203.353 304.044 204.108 297.034L204.011 296.934C204.66 291.97 204.871 286.899 204.612 281.761L204.831 281.604C207.129 240.502 240.511 207.894 281.364 207.894C288.623 207.894 295.639 208.922 302.297 210.844L302.411 210.761C309.979 213.148 318.01 214.432 326.341 214.432C371.1 214.432 407.381 177.408 407.381 131.732C407.381 86.0555 371.1 49.0308 326.341 49.0308C281.583 49.0308 245.302 86.0555 245.302 131.732C245.302 132.925 245.334 134.11 245.383 135.286L245.221 135.402C243.345 176.902 209.776 209.966 168.639 209.966C162.062 209.966 155.687 209.112 149.597 207.521C146.65 206.502 143.621 205.665 140.535 204.994C140.527 204.994 140.511 204.994 140.503 204.994C139.967 204.878 139.431 204.77 138.887 204.662C138.732 204.629 138.578 204.604 138.424 204.571C138.01 204.497 137.596 204.422 137.181 204.347C136.897 204.298 136.613 204.248 136.329 204.207C136.02 204.157 135.712 204.115 135.403 204.066C135.013 204.008 134.624 203.95 134.234 203.9C134.007 203.867 133.787 203.842 133.56 203.817C133.089 203.759 132.618 203.701 132.139 203.651C131.976 203.635 131.806 203.618 131.644 203.602C131.116 203.552 130.596 203.502 130.068 203.461C129.93 203.452 129.792 203.436 129.646 203.428C129.11 203.386 128.566 203.353 128.03 203.32C127.876 203.312 127.713 203.303 127.559 203.295C127.056 203.27 126.544 203.254 126.041 203.237C125.813 203.237 125.594 203.229 125.367 203.22C124.944 203.212 124.53 203.204 124.108 203.204C123.962 203.204 123.816 203.204 123.661 203.204C123.458 203.204 123.263 203.204 123.06 203.204C122.793 203.204 122.525 203.204 122.265 203.212C121.729 203.22 121.193 203.237 120.665 203.254C120.608 203.254 120.551 203.254 120.495 203.254C81.5907 204.778 49.719 234.295 43.6694 272.629C43.6694 272.663 43.6613 272.696 43.6532 272.729C43.572 273.267 43.4908 273.798 43.4177 274.336C43.3933 274.527 43.3609 274.709 43.3365 274.9C43.2797 275.306 43.2391 275.72 43.1903 276.126C43.1579 276.441 43.1173 276.756 43.0848 277.071C43.0523 277.386 43.0198 277.693 42.9955 278.007C42.9549 278.413 42.9224 278.82 42.8899 279.226C42.8737 279.474 42.8493 279.723 42.8331 279.971C42.8006 280.427 42.7681 280.891 42.7437 281.347C42.7356 281.579 42.7194 281.803 42.7113 282.035C42.6869 282.499 42.6707 282.955 42.6625 283.419C42.6625 283.675 42.6463 283.941 42.6463 284.206C42.6463 284.612 42.6301 285.026 42.6301 285.432C42.6301 285.581 42.6301 285.731 42.6301 285.88C42.6301 286.087 42.6301 286.286 42.6301 286.485C42.6301 286.775 42.6301 287.065 42.6382 287.355C42.6463 287.86 42.6625 288.366 42.6788 288.88C42.6788 288.987 42.6788 289.103 42.695 289.211C43.166 301.276 46.1623 312.679 51.1725 322.88C51.2456 323.02 51.3105 323.17 51.3836 323.311C51.546 323.634 51.7165 323.957 51.8789 324.28C52.0413 324.595 52.1956 324.902 52.358 325.208C52.4311 325.349 52.5123 325.498 52.5935 325.639C57.5874 334.937 64.2379 343.066 72.0901 349.67C72.3256 349.869 72.5692 350.06 72.8047 350.259C73.0564 350.466 73.3 350.673 73.5517 350.872C79.6013 355.736 86.3491 359.739 93.6167 362.705C93.6492 362.714 93.6735 362.73 93.706 362.738C94.1445 362.921 94.5911 363.086 95.0296 363.26C95.2245 363.335 95.4275 363.418 95.6224 363.492C95.9066 363.6 96.1827 363.7 96.4669 363.799C96.8404 363.932 97.214 364.073 97.5875 364.205C97.7093 364.247 97.823 364.288 97.9448 364.329C109.216 368.191 121.469 369.567 133.982 367.918C134.575 367.843 135.176 367.752 135.769 367.661C135.947 367.636 136.126 367.603 136.305 367.578C136.556 367.536 136.816 367.503 137.068 367.454C137.255 367.42 137.441 367.387 137.628 367.346C137.92 367.296 138.221 367.238 138.513 367.18C138.862 367.114 139.212 367.047 139.561 366.973C139.869 366.907 140.178 366.849 140.486 366.782L140.633 366.931C181.055 361.959 218.554 390.275 225.35 431.675C226.382 437.94 226.633 444.155 226.211 450.229C225.432 454.828 225.026 459.551 225.026 464.374C225.026 465.567 225.058 466.752 225.107 467.929L224.944 468.045C223.069 509.545 189.5 542.608 148.363 542.608C141.786 542.608 135.411 541.755 129.321 540.164C126.374 539.145 123.345 538.308 120.259 537.636C120.251 537.636 120.235 537.636 120.227 537.636C119.691 537.52 119.155 537.413 118.611 537.305C118.456 537.272 118.302 537.247 118.148 537.214C117.734 537.139 117.32 537.065 116.905 536.99C116.621 536.94 116.337 536.891 116.053 536.849C115.744 536.799 115.436 536.758 115.127 536.708C114.737 536.65 114.348 536.592 113.958 536.543C113.73 536.509 113.511 536.485 113.284 536.46C112.813 536.402 112.342 536.344 111.863 536.294C111.7 536.277 111.53 536.261 111.359 536.244C110.84 536.195 110.312 536.145 109.784 536.103C109.646 536.095 109.5 536.079 109.362 536.07C108.826 536.029 108.282 535.996 107.746 535.962C107.592 535.954 107.429 535.946 107.275 535.938C106.771 535.913 106.26 535.896 105.756 535.88C105.529 535.88 105.31 535.871 105.082 535.863C104.66 535.855 104.246 535.847 103.824 535.847C103.678 535.847 103.531 535.847 103.377 535.847C103.174 535.847 102.979 535.847 102.776 535.847C102.508 535.847 102.24 535.847 101.98 535.855C101.445 535.863 100.909 535.88 100.381 535.896C100.324 535.896 100.267 535.896 100.21 535.896C61.3065 537.421 29.4347 566.938 23.3852 605.264C23.3852 605.297 23.3771 605.33 23.369 605.363C23.2878 605.902 23.2066 606.432 23.1335 606.971C23.1091 607.161 23.0766 607.352 23.0523 607.534C22.9954 607.94 22.9467 608.355 22.9061 608.761C22.8736 609.076 22.833 609.391 22.8006 609.705C22.7681 610.02 22.7356 610.327 22.7112 610.642C22.6706 611.048 22.6382 611.454 22.6057 611.86C22.5894 612.109 22.5651 612.357 22.5488 612.606C22.5163 613.062 22.4839 613.526 22.4595 613.981C22.4514 614.213 22.4351 614.437 22.427 614.669C22.4027 615.133 22.3864 615.589 22.3783 616.053C22.3783 616.31 22.3621 616.575 22.3621 616.832C22.3621 617.238 22.3458 617.652 22.3458 618.058C22.3458 618.208 22.3458 618.357 22.3458 618.506C22.3458 618.713 22.3458 618.912 22.3458 619.111C22.3458 619.401 22.3458 619.691 22.3539 619.981C22.3621 620.486 22.3783 620.992 22.3945 621.506C22.3945 621.613 22.3945 621.729 22.4108 621.837C22.8818 633.902 25.8781 645.305 30.8883 655.506C30.9613 655.647 31.0263 655.796 31.0994 655.937C31.2618 656.26 31.4323 656.583 31.5947 656.906C31.7571 657.221 31.9114 657.528 32.0738 657.834C32.1469 657.975 32.2281 658.124 32.3093 658.265C37.3032 667.563 43.9536 675.692 51.8059 682.296C52.0413 682.495 52.285 682.686 52.5204 682.885C52.7722 683.092 53.0158 683.299 53.2675 683.498C59.317 688.362 66.0649 692.365 73.3325 695.331C73.365 695.34 73.3893 695.356 73.4218 695.365C73.8603 695.547 74.3069 695.713 74.7454 695.887C74.9484 695.961 75.1433 696.044 75.3382 696.119C75.6224 696.226 75.8985 696.326 76.1827 696.425C76.5562 696.558 76.9297 696.699 77.3032 696.831C77.425 696.873 77.5387 696.914 77.6605 696.956C88.9314 700.817 101.185 702.193 113.698 700.544C114.291 700.469 114.892 700.378 115.484 700.287C115.663 700.262 115.842 700.229 116.02 700.204C116.272 700.162 116.532 700.129 116.784 700.08C116.97 700.046 117.157 700.013 117.344 699.972C117.636 699.922 117.937 699.864 118.229 699.806C118.578 699.74 118.927 699.674 119.276 699.599C119.585 699.533 119.894 699.475 120.202 699.408L120.348 699.558C160.771 694.586 198.27 722.901 205.066 764.301C206.154 770.914 206.382 777.477 205.854 783.866C204.49 792.525 204.457 801.558 205.959 810.681C213.357 855.728 255.143 886.123 299.285 878.574C343.426 871.025 373.211 828.382 365.813 783.336C358.416 738.289 316.629 707.894 272.488 715.443C271.148 715.675 269.825 715.932 268.517 716.23L268.314 716.023C228.209 720.506 191.181 692.298 184.425 651.18C183.223 643.88 183.061 636.637 183.816 629.627L183.718 629.527C184.368 624.563 184.579 619.492 184.319 614.354L184.538 614.197C186.836 573.095 220.219 540.487 261.071 540.487L261.096 540.57Z" fill="url(#paint0_linear_8_3062)"/>
<g filter="url(#filter0_d_8_3062)">
<path d="M264.165 145.38C271.916 179.533 304.961 200.935 337.975 193.181C370.988 185.427 391.467 151.455 383.716 117.301C375.965 83.1475 342.92 61.746 309.907 69.4997C276.894 77.2534 256.414 111.226 264.165 145.38Z" fill="#D1D3D4"/>
</g>
<path d="M284.345 87.1293C260.396 111.544 260.416 151.147 284.389 175.587C308.362 200.026 347.21 200.046 371.158 175.632C395.106 151.218 395.086 111.614 371.114 87.1745C347.141 62.7352 308.293 62.7149 284.345 87.1293Z" fill="url(#paint1_linear_8_3062)"/>
<g filter="url(#filter1_d_8_3062)">
<path d="M61.7014 296.765C68.2542 331.168 100.54 353.746 133.813 347.195C167.086 340.644 188.746 307.445 182.194 273.042C175.641 238.639 143.356 216.061 110.082 222.612C76.8095 229.163 55.1485 262.363 61.7014 296.765Z" fill="#D1D3D4"/>
</g>
<path d="M72.5815 253.781C55.6475 283.682 65.7212 321.931 95.0818 339.212C124.442 356.493 161.972 346.263 178.906 316.361C195.84 286.46 185.766 248.211 156.406 230.93C127.045 213.649 89.5156 223.879 72.5815 253.781Z" fill="url(#paint2_linear_8_3062)"/>
<g filter="url(#filter2_d_8_3062)">
<path d="M299.186 524.794C332.967 527.72 362.714 501.796 365.629 466.892C368.543 431.987 343.52 401.321 309.739 398.396C275.959 395.47 246.211 421.394 243.297 456.299C240.383 491.203 265.406 521.869 299.186 524.794Z" fill="#D1D3D4"/>
</g>
<path d="M246.669 462.829C246.669 497.356 274.153 525.346 308.056 525.346C341.958 525.346 369.442 497.356 369.442 462.829C369.442 428.302 341.958 400.312 308.056 400.312C274.153 400.312 246.669 428.302 246.669 462.829Z" fill="url(#paint3_linear_8_3062)"/>
<g filter="url(#filter3_d_8_3062)">
<path d="M105.141 681.218C138.963 678.83 164.46 648.564 162.092 613.617C159.723 578.67 130.385 552.276 96.5639 554.664C62.7424 557.053 37.2448 587.319 39.6134 622.266C41.982 657.213 71.3199 683.607 105.141 681.218Z" fill="#D1D3D4"/>
</g>
<path d="M43.9229 628.183C49.1145 662.302 80.4819 685.666 113.984 680.368C147.486 675.07 170.436 643.116 165.245 608.997C160.053 574.878 128.686 551.514 95.1835 556.812C61.6814 562.11 38.7313 594.064 43.9229 628.183Z" fill="url(#paint4_linear_8_3062)"/>
<g filter="url(#filter4_d_8_3062)">
<path d="M279.613 859.155C313.394 862.08 343.141 836.156 346.055 801.252C348.969 766.348 323.947 735.681 290.166 732.756C256.385 729.831 226.638 755.755 223.724 790.659C220.81 825.563 245.832 856.23 279.613 859.155Z" fill="#D1D3D4"/>
</g>
<path d="M227.084 797.185C227.084 831.712 254.567 859.702 288.47 859.702C322.373 859.702 349.856 831.712 349.856 797.185C349.856 762.658 322.373 734.668 288.47 734.668C254.567 734.668 227.084 762.658 227.084 797.185Z" fill="url(#paint5_linear_8_3062)"/>
<g filter="url(#filter5_d_8_3062)">
<path d="M326 49.0601C370.758 49.0601 407.039 86.0848 407.039 131.761C407.039 177.437 370.758 214.462 326 214.462C317.669 214.462 309.638 213.177 302.07 210.791L301.956 210.873C295.297 208.951 288.282 207.923 281.022 207.923C240.169 207.923 206.787 240.531 204.489 281.633L204.27 281.791C204.53 286.928 204.319 292 203.669 296.963L203.767 297.063C203.011 304.073 203.174 311.316 204.376 318.616C211.132 359.735 248.16 387.942 288.265 383.459L288.428 383.625C293.617 382.473 298.992 381.827 304.506 381.744C304.709 381.744 304.912 381.744 305.115 381.744C305.318 381.744 305.529 381.744 305.732 381.744C305.886 381.744 306.032 381.744 306.187 381.744C306.666 381.744 307.153 381.752 307.632 381.761C307.746 381.761 307.851 381.761 307.957 381.761C345.992 382.738 379.244 411.054 385.764 450.772C393.162 495.818 363.377 538.461 319.236 546.01C309.833 547.618 300.535 547.502 291.651 545.886C291.522 545.869 291.392 545.845 291.262 545.82C290.929 545.762 290.604 545.695 290.279 545.629C287.396 545.057 284.571 544.336 281.802 543.466L281.688 543.549C275.029 541.627 268.014 540.599 260.754 540.599L260.73 540.516C219.877 540.516 186.495 573.124 184.197 614.226L183.978 614.383C184.238 619.521 184.027 624.593 183.377 629.556L183.474 629.656C182.719 636.666 182.882 643.909 184.083 651.209C190.839 692.328 227.867 720.535 267.973 716.052L268.176 716.26C269.483 715.961 270.807 715.704 272.147 715.472C316.288 707.923 358.075 738.319 365.472 783.365C372.87 828.411 343.085 871.054 298.943 878.603" stroke="#D7D7D7" stroke-miterlimit="10"/>
</g>
<g filter="url(#filter6_d_8_3062)">
<path d="M326 49.0601C370.758 49.0601 407.039 86.0848 407.039 131.761C407.039 177.437 370.758 214.462 326 214.462C317.669 214.462 309.638 213.177 302.07 210.791L301.956 210.873C295.297 208.951 288.282 207.923 281.022 207.923C240.169 207.923 206.787 240.531 204.489 281.633L204.27 281.791C204.53 286.928 204.319 292 203.669 296.963L203.767 297.063C203.011 304.073 203.174 311.316 204.376 318.616C211.132 359.735 248.16 387.942 288.265 383.459L288.428 383.625C293.617 382.473 298.992 381.827 304.506 381.744C304.709 381.744 304.912 381.744 305.115 381.744C305.318 381.744 305.529 381.744 305.732 381.744C305.886 381.744 306.032 381.744 306.187 381.744C306.666 381.744 307.153 381.752 307.632 381.761C307.746 381.761 307.851 381.761 307.957 381.761C345.992 382.738 379.244 411.054 385.764 450.772C393.162 495.818 363.377 538.461 319.236 546.01C309.833 547.618 300.535 547.502 291.651 545.886C291.522 545.869 291.392 545.845 291.262 545.82C290.929 545.762 290.604 545.695 290.279 545.629C287.396 545.057 284.571 544.336 281.802 543.466L281.688 543.549C275.029 541.627 268.014 540.599 260.754 540.599L260.73 540.516C219.877 540.516 186.495 573.124 184.197 614.226L183.978 614.383C184.238 619.521 184.027 624.593 183.377 629.556L183.474 629.656C182.719 636.666 182.882 643.909 184.083 651.209C190.839 692.328 227.867 720.535 267.973 716.052L268.176 716.26C269.483 715.961 270.807 715.704 272.147 715.472C316.288 707.923 358.075 738.319 365.472 783.365C372.87 828.411 343.085 871.054 298.943 878.603" stroke="#D7D7D7" stroke-miterlimit="10"/>
</g>
<path d="M299.523 144.416C299.411 144.291 299.167 144.032 298.964 143.753C298.385 142.955 298.202 142.106 298.639 141.153C298.893 140.604 299.096 140.034 299.34 139.433C298.71 139.216 298.131 139.05 297.582 138.832C295.357 137.952 294.717 136.263 295.865 134.129C296.302 133.332 296.861 132.586 297.45 131.892C298.832 130.286 300.092 128.598 300.377 126.422C300.539 125.19 300.529 123.916 300.407 122.673C300.102 119.606 300.133 116.561 300.824 113.557C302.378 106.865 306.615 102.711 312.864 100.546C317.122 99.0753 321.532 98.7231 326.003 98.9095C330.403 99.1063 334.518 100.256 338.288 102.597C341.752 104.752 344.516 107.611 346.559 111.185C346.833 111.661 347.128 111.817 347.656 111.806C349.241 111.775 350.816 111.775 352.401 111.806C352.919 111.806 353.204 111.692 353.468 111.185C354.251 109.672 356.008 109.061 357.543 109.672C359.047 110.273 359.89 111.879 359.555 113.536C359.229 115.131 357.776 116.292 356.151 116.188C354.891 116.105 353.946 115.463 353.397 114.303C353.194 113.878 352.96 113.785 352.544 113.785C351.08 113.805 349.607 113.795 348.144 113.805C348.103 113.805 348.062 113.837 348.093 113.826C348.723 116.126 349.353 118.415 350.003 120.798C350.085 120.798 350.308 120.829 350.532 120.829C352.838 120.829 355.135 120.829 357.441 120.839C357.888 120.839 358.122 120.725 358.345 120.28C359.047 118.85 360.601 118.156 362.034 118.539C363.568 118.943 364.584 120.28 364.574 121.865C364.564 123.377 363.568 124.672 362.095 125.086C360.672 125.48 359.128 124.848 358.417 123.47C358.142 122.932 357.817 122.818 357.279 122.818C355.135 122.849 353.001 122.828 350.857 122.828C350.613 122.828 350.359 122.828 350.176 122.828C349.983 125.19 349.8 127.469 349.607 129.841C350.664 129.841 351.792 129.862 352.919 129.82C353.082 129.82 353.265 129.499 353.387 129.292C354.088 128.049 355.124 127.375 356.537 127.469C357.909 127.562 358.894 128.297 359.412 129.603C360.063 131.239 359.331 133.094 357.766 133.86C356.181 134.637 354.291 134.036 353.458 132.42C353.204 131.933 352.93 131.809 352.442 131.83C351.446 131.861 350.44 131.819 349.444 131.861C349.241 131.861 348.916 132.078 348.855 132.265C347.697 135.911 345.908 139.257 344.201 142.644C343.236 144.561 342.321 146.477 342.057 148.673C341.732 151.335 341.864 153.977 342.311 156.598C342.636 158.483 343.104 160.337 343.531 162.202C343.754 163.186 343.388 163.724 342.393 163.724C334.365 163.724 326.338 163.724 318.311 163.724C317.478 163.724 317.183 163.403 317.081 162.523C316.807 160.026 316.533 157.54 316.248 154.93C315.903 155.075 315.649 155.178 315.405 155.282C312.529 156.546 309.562 157.447 306.392 157.457C305.863 157.457 305.315 157.395 304.807 157.271C303.181 156.877 302.195 155.707 302.033 153.946C301.941 152.91 301.891 151.864 301.921 150.817C301.972 149.388 301.433 148.321 300.316 147.461C299.889 147.13 299.432 146.664 299.299 146.177C299.167 145.711 299.421 145.12 299.533 144.395L299.523 144.416ZM301.464 145.907C303.394 147.244 304.014 149.181 303.862 151.47C303.811 152.226 303.892 152.982 303.963 153.739C304.045 154.723 304.461 155.23 305.406 155.355C306.158 155.458 306.941 155.479 307.693 155.396C310.66 155.096 313.434 154.101 316.075 152.723C317.081 152.195 317.691 152.475 317.894 153.594C318.128 154.868 318.301 156.163 318.473 157.457C318.656 158.856 318.799 160.265 318.961 161.684H341.285C341.255 161.477 341.244 161.311 341.214 161.156C340.868 159.374 340.452 157.592 340.188 155.8C339.791 153.096 339.771 150.382 340.188 147.658C340.533 145.441 341.57 143.514 342.504 141.526C343.896 138.584 345.228 135.621 346.589 132.669C346.701 132.431 346.752 132.161 346.853 131.83C346.579 131.83 346.416 131.809 346.264 131.83C345.4 131.954 344.811 131.581 344.323 130.866C343.805 130.11 343.216 129.395 342.606 128.712C342.403 128.484 342.047 128.308 341.752 128.297C340.777 128.246 339.802 128.287 338.826 128.277C338.084 128.277 337.668 127.873 337.688 127.241C337.708 126.64 338.105 126.298 338.836 126.298C339.995 126.298 341.163 126.329 342.321 126.277C342.982 126.246 343.419 126.495 343.805 127.013C344.445 127.862 345.136 128.66 345.766 129.509C346.173 130.048 346.701 129.81 347.178 129.789C347.321 129.789 347.534 129.354 347.565 129.095C347.758 127.779 347.92 126.474 348.042 125.148C348.103 124.403 348.052 123.646 348.052 122.818H347.189C344.974 122.818 342.769 122.818 340.553 122.818C340.259 122.818 339.883 122.859 339.669 122.704C339.385 122.496 339.029 122.093 339.06 121.802C339.09 121.471 339.456 121.129 339.761 120.891C339.934 120.756 340.259 120.829 340.513 120.818C342.677 120.818 344.841 120.818 347.006 120.818H347.808C347.453 118.425 346.853 116.229 345.807 114.075C345.034 115.038 344.384 115.939 343.642 116.747C343.368 117.048 342.87 117.276 342.464 117.307C341.285 117.379 340.096 117.338 338.907 117.327C338.084 117.327 337.668 116.975 337.678 116.323C337.688 115.701 338.105 115.349 338.877 115.339C339.852 115.339 340.828 115.359 341.813 115.318C342.057 115.318 342.372 115.194 342.525 115.017C343.307 114.085 344.049 113.111 344.831 112.127C343.175 109.268 341.031 106.907 338.369 105.052C334.731 102.514 330.707 101.188 326.308 100.929C321.837 100.671 317.427 101.012 313.179 102.535C309.227 103.944 306.016 106.326 304.065 110.221C302.134 114.085 301.84 118.218 302.358 122.424C302.846 126.309 301.941 129.685 299.381 132.627C298.69 133.425 298.05 134.274 297.511 135.186C296.973 136.087 297.186 136.543 298.151 136.926C298.751 137.165 299.391 137.33 300.001 137.537C301.2 137.941 301.565 138.584 301.22 139.816C301.047 140.428 300.834 141.039 300.539 141.598C300.244 142.157 300.377 142.53 300.783 142.914C300.935 143.059 301.088 143.204 301.25 143.338C302.338 144.312 302.378 144.789 301.433 145.918L301.464 145.907ZM356.354 111.464C355.582 111.454 354.962 112.055 354.962 112.821C354.962 113.536 355.582 114.178 356.293 114.199C357.014 114.22 357.685 113.557 357.685 112.821C357.685 112.086 357.096 111.485 356.354 111.475V111.464ZM356.293 132.172C357.065 132.182 357.685 131.581 357.685 130.815C357.685 130.1 357.055 129.458 356.354 129.437C355.632 129.416 354.962 130.079 354.962 130.825C354.962 131.56 355.551 132.161 356.293 132.172ZM361.252 123.18C362.014 123.18 362.623 122.559 362.603 121.792C362.583 121.057 361.993 120.466 361.262 120.456C360.489 120.456 359.91 121.046 359.931 121.844C359.941 122.61 360.5 123.17 361.252 123.17V123.18Z" fill="#514A7F"/>
<path d="M347.219 139.008C347.239 137.113 348.713 135.673 350.593 135.694C352.391 135.714 353.824 137.237 353.814 139.102C353.804 140.977 352.31 142.437 350.43 142.406C348.601 142.375 347.209 140.894 347.219 139.008ZM350.522 140.417C351.253 140.417 351.842 139.827 351.863 139.091C351.873 138.325 351.263 137.693 350.511 137.693C349.749 137.693 349.17 138.314 349.19 139.102C349.211 139.868 349.77 140.417 350.522 140.417Z" fill="#514A7F"/>
<path d="M350.552 101.23C352.401 101.24 353.834 102.753 353.814 104.659C353.793 106.492 352.31 107.953 350.481 107.943C348.631 107.932 347.199 106.42 347.229 104.514C347.26 102.649 348.703 101.22 350.552 101.23ZM349.18 104.545C349.17 105.332 349.749 105.943 350.511 105.943C351.243 105.943 351.832 105.353 351.853 104.607C351.873 103.84 351.273 103.219 350.511 103.219C349.759 103.219 349.201 103.778 349.19 104.545H349.18Z" fill="#514A7F"/>
<path d="M338.176 121.854C338.176 128.95 332.486 134.709 325.505 134.699C318.514 134.699 312.905 128.898 312.905 121.709C312.905 114.655 318.636 108.926 325.647 108.937C332.536 108.947 338.176 114.769 338.176 121.864V121.854ZM336.225 121.813C336.225 115.804 331.429 110.915 325.535 110.915C319.642 110.915 314.856 115.804 314.856 121.813C314.856 127.821 319.642 132.7 325.546 132.7C331.439 132.7 336.225 127.81 336.225 121.802V121.813Z" fill="#514A7F"/>
<path d="M318.931 125.904C318.453 125.904 318.067 125.904 317.671 125.904C317.081 125.883 316.746 125.531 316.716 124.972C316.685 124.412 317.01 124.029 317.579 123.957C318.016 123.905 318.453 123.905 318.931 123.884V122.817C318.494 122.817 318.097 122.848 317.711 122.817C317.081 122.765 316.644 122.31 316.705 121.771C316.777 121.17 317.142 120.849 317.742 120.839C318.108 120.839 318.484 120.839 318.91 120.839V119.71C318.534 119.71 318.148 119.73 317.772 119.71C317.122 119.668 316.705 119.275 316.695 118.726C316.685 118.156 317.132 117.752 317.823 117.731C318.169 117.721 318.514 117.731 318.981 117.731C318.981 117.213 318.961 116.747 318.981 116.281C319.012 115.483 319.327 115.172 320.099 115.152C320.536 115.131 320.973 115.152 321.522 115.152C321.522 114.655 321.522 114.24 321.522 113.826C321.532 113.225 321.877 112.883 322.426 112.842C322.985 112.8 323.361 113.142 323.432 113.712C323.483 114.157 323.442 114.603 323.442 115.1H324.57C324.57 114.655 324.55 114.23 324.57 113.815C324.601 113.194 324.966 112.831 325.546 112.831C326.094 112.831 326.45 113.204 326.48 113.784C326.511 114.209 326.48 114.623 326.48 115.1H327.588C327.588 114.686 327.568 114.313 327.588 113.94C327.629 113.246 328.045 112.8 328.604 112.821C329.143 112.842 329.508 113.277 329.529 113.95C329.539 114.323 329.529 114.696 329.529 115.152C330.037 115.152 330.443 115.152 330.86 115.152C331.744 115.172 332.028 115.462 332.069 116.343C332.13 117.617 332.13 117.627 333.359 117.731C333.939 117.783 334.254 118.104 334.335 118.653C334.406 119.161 333.989 119.637 333.4 119.699C332.994 119.741 332.577 119.699 332.11 119.699V120.839C332.506 120.839 332.872 120.828 333.237 120.839C333.898 120.87 334.315 121.232 334.335 121.792C334.355 122.361 333.918 122.776 333.237 122.828C332.892 122.848 332.547 122.828 332.13 122.828V123.926C332.486 123.926 332.841 123.905 333.207 123.926C333.908 123.967 334.345 124.361 334.345 124.93C334.345 125.5 333.898 125.883 333.207 125.915C333.095 125.915 332.973 125.935 332.862 125.915C332.201 125.801 332.049 126.111 332.059 126.743C332.089 128.349 331.906 128.515 330.362 128.515C330.108 128.515 329.864 128.515 329.529 128.515C329.529 128.981 329.539 129.354 329.529 129.727C329.498 130.379 329.112 130.825 328.584 130.825C328.045 130.825 327.639 130.41 327.588 129.747C327.557 129.374 327.588 128.991 327.588 128.566H326.491C326.491 128.898 326.491 129.219 326.491 129.54C326.47 130.358 326.094 130.835 325.495 130.825C324.916 130.814 324.56 130.358 324.54 129.571C324.54 129.24 324.54 128.919 324.54 128.546H323.452C323.452 128.939 323.473 129.333 323.452 129.716C323.412 130.4 322.965 130.856 322.416 130.814C321.877 130.773 321.532 130.348 321.512 129.675C321.512 129.53 321.491 129.385 321.512 129.25C321.603 128.649 321.349 128.484 320.78 128.494C319.083 128.515 318.992 128.401 318.971 126.629C318.971 126.422 318.951 126.215 318.931 125.894V125.904ZM330.138 117.203H320.993V126.526C323.95 126.526 326.856 126.526 329.752 126.505C329.884 126.505 330.118 126.225 330.118 126.07C330.138 123.138 330.138 120.196 330.138 117.203Z" fill="#514A7F"/>
<path d="M329.082 121.833C329.082 122.621 329.092 123.398 329.082 124.185C329.071 125.034 328.716 125.428 327.903 125.428C326.318 125.449 324.743 125.449 323.158 125.428C322.375 125.428 322.009 125.034 321.999 124.226C321.979 122.61 321.979 121.005 321.999 119.389C321.999 118.602 322.385 118.218 323.178 118.208C324.763 118.187 326.338 118.187 327.923 118.208C328.706 118.208 329.061 118.602 329.082 119.41C329.102 120.218 329.082 121.026 329.082 121.823V121.833ZM327.059 123.408V120.259H324.011V123.408H327.059Z" fill="#514A7F"/>
<path d="M119.111 261.361H119.931C126.65 261.361 133.378 261.361 140.097 261.361C141.253 261.361 141.616 261.731 141.625 262.89C141.625 264.8 141.635 266.7 141.625 268.609C141.625 269.103 141.7 269.417 142.203 269.683C143.592 270.414 144.244 272.029 143.871 273.521C143.47 275.117 142.147 276.219 140.572 276.257C139.063 276.295 137.655 275.221 137.208 273.692C136.733 272.067 137.45 270.424 138.969 269.569C139.165 269.455 139.417 269.198 139.417 268.999C139.454 267.232 139.435 265.474 139.435 263.65H119.139C118.85 264.619 118.505 265.607 118.272 266.605C118.198 266.947 118.272 267.403 118.459 267.707C119.036 268.704 119.707 269.645 120.295 270.642C120.686 271.317 121.077 272.01 121.32 272.751C121.683 273.853 121.236 274.841 120.229 275.392C119.931 275.554 119.605 275.668 119.279 275.772C118.077 276.171 118.067 276.162 118.133 277.482C118.198 278.755 118.319 280.028 118.366 281.311C118.459 283.876 117.154 285.31 114.657 285.339C113.454 285.348 112.252 285.206 111.06 285.082C110.295 285.006 110.193 285.044 110.174 285.861C110.156 286.973 110.174 288.094 110.174 289.206C110.174 290.032 109.764 290.507 109.075 290.507C108.394 290.507 107.975 290.042 107.994 289.206C108.012 287.743 108.078 286.289 108.096 284.826C108.096 284.674 107.966 284.446 107.826 284.379C107.481 284.208 107.099 284.123 106.736 283.98C106.027 283.695 105.739 283.144 105.953 282.508C106.149 281.928 106.736 281.7 107.425 281.871C109.056 282.27 110.677 282.707 112.327 283.011C113.166 283.173 114.051 283.135 114.908 283.087C115.831 283.03 116.185 282.584 116.157 281.615C116.101 279.943 115.961 278.28 115.915 276.608C115.868 275.136 116.362 274.452 117.713 273.939C118.198 273.758 118.692 273.606 119.279 273.407C119.018 272.913 118.813 272.476 118.561 272.077C117.955 271.098 117.34 270.12 116.688 269.16C115.887 267.973 115.766 266.728 116.287 265.398C116.502 264.847 116.651 264.258 116.847 263.631H112.038C110.696 268.438 106.997 271.041 103.101 273.445C102.794 273.635 102.197 273.673 101.899 273.492C99.0103 271.82 96.3172 269.882 94.3975 267.042C93.0276 265.009 92.366 262.795 93.0649 260.325C94.2484 256.136 98.6282 254.758 101.936 257.513C102.095 257.646 102.244 257.789 102.449 257.969C104.145 256.411 106.055 255.518 108.348 256.373C110.584 257.2 111.656 259.014 112.094 261.323H116.875C116.772 259.993 116.39 258.786 115.738 257.665C114.237 255.062 111.963 253.428 109.242 252.392C104.732 250.682 100.296 250.967 96.0376 253.228C90.8004 256.012 88.48 261.779 90.2879 267.659C90.8843 269.607 91.8162 271.469 92.7294 273.302C93.9129 275.658 95.1244 277.995 95.581 280.636C96.0935 283.591 95.991 286.555 95.8233 289.529C95.7953 290.118 95.4133 290.45 94.8448 290.498C94.2298 290.545 93.8384 290.222 93.7172 289.614C93.6613 289.329 93.6893 289.016 93.6986 288.712C93.7731 285.814 94.0713 282.869 93.1861 280.066C92.5524 278.052 91.6391 276.114 90.6886 274.224C89.5517 271.972 88.4241 269.73 87.8836 267.232C86.3367 260.145 89.5144 253.599 96.1028 250.73C102.374 247.994 108.46 248.488 114.088 252.563C117.014 254.673 118.729 257.599 119.102 261.361H119.111ZM109.923 262.14C109.941 261.247 109.662 260.335 109.056 259.537C108.087 258.273 106.596 257.903 105.226 258.701C104.555 259.1 103.987 259.698 103.418 260.259C102.719 260.962 102.179 260.981 101.508 260.259C101.2 259.917 100.893 259.565 100.548 259.271C98.4325 257.456 95.786 258.359 95.1244 261.095C94.705 262.862 95.2642 264.391 96.2333 265.807C97.7896 268.077 99.9422 269.673 102.216 271.108C102.337 271.184 102.579 271.184 102.691 271.108C104.946 269.683 107.08 268.106 108.637 265.864C109.382 264.79 109.913 263.622 109.904 262.14H109.923ZM139.277 272.713C139.277 273.416 139.845 274.005 140.526 274.005C141.206 274.005 141.774 273.407 141.774 272.704C141.774 272.001 141.197 271.412 140.516 271.412C139.845 271.412 139.277 272.001 139.277 272.713Z" fill="#465FB3"/>
<path d="M103.577 306.61H125.951C126.203 305.327 126.193 305.308 125.075 304.957C124.963 304.919 124.861 304.89 124.749 304.852C122.811 304.216 122.196 302.857 123.155 301.033C123.873 299.665 124.749 298.383 125.588 297.09C125.979 296.492 126.026 295.922 125.774 295.257C123.77 289.984 125.97 284.75 129.977 281.71C136.491 276.76 146.024 277.036 152.081 282.508C155.548 285.643 157.048 289.68 156.563 294.43C156.237 297.661 154.97 300.539 153.432 303.323C152.128 305.698 150.842 308.111 150.609 310.866C150.413 313.174 150.441 315.502 150.46 317.82C150.46 319.292 150.217 319.634 148.763 319.634C144.318 319.634 139.873 319.634 135.438 319.634C134.338 319.634 133.984 319.264 133.984 318.124C133.984 317.098 134.002 316.081 133.984 315.055C133.984 314.742 133.891 314.438 133.853 314.219C132.306 314.305 130.853 314.466 129.408 314.447C127.209 314.419 125.886 313.117 125.793 311.018C125.765 310.343 125.793 309.678 125.793 308.88H125.084C117.75 308.88 110.407 308.88 103.073 308.88C101.685 308.88 101.387 308.586 101.387 307.18C101.387 298.82 101.387 290.45 101.396 282.09C101.396 281.529 101.293 281.187 100.753 280.893C99.3458 280.133 98.7121 278.461 99.1407 276.903C99.5415 275.44 100.939 274.357 102.44 274.338C103.921 274.319 105.356 275.402 105.776 276.855C106.223 278.423 105.627 280.057 104.22 280.864C103.707 281.159 103.558 281.463 103.558 282.042C103.577 289.937 103.577 297.841 103.577 305.736V306.6V306.61ZM148.204 317.364C148.204 316.965 148.204 316.594 148.204 316.233C148.176 313.839 148.167 311.455 148.68 309.099C149.229 306.629 150.338 304.396 151.541 302.211C152.677 300.14 153.675 298.012 154.15 295.675C155.119 290.858 153.824 286.764 150.059 283.676C145.362 279.819 138.252 279.373 132.894 282.451C130.657 283.733 128.831 285.443 127.861 287.932C126.957 290.231 127.023 292.54 127.936 294.839C128.374 295.941 128.225 297.024 127.582 298.022C126.929 299.029 126.287 300.036 125.653 301.052C125.383 301.489 125.15 301.964 124.861 302.487C125.532 302.734 126.109 302.924 126.669 303.152C127.74 303.579 128.309 304.358 128.243 305.565C128.16 307.142 128.066 308.719 127.992 310.296C127.917 311.844 128.29 312.234 129.837 312.253C132.204 312.272 134.487 311.778 136.714 310.999C137.422 310.752 138 310.989 138.233 311.607C138.466 312.234 138.187 312.794 137.478 313.079C137.022 313.269 136.547 313.421 136.174 313.554V317.373H148.223L148.204 317.364ZM103.735 277.853C103.726 277.178 103.101 276.561 102.449 276.57C101.787 276.57 101.182 277.207 101.191 277.881C101.191 278.556 101.815 279.173 102.477 279.164C103.139 279.154 103.744 278.527 103.735 277.853Z" fill="#465FB3"/>
<path d="M141.523 286.944C142.623 286.374 143.554 285.69 144.598 285.377C147.375 284.56 150.199 286.346 151.065 289.357C151.774 291.818 151.149 294.031 149.798 296.083C148.167 298.563 145.884 300.339 143.443 301.907C141.523 303.142 141.812 303.113 139.939 301.907C137.246 300.168 134.748 298.211 133.117 295.314C132.102 293.509 131.729 291.59 132.26 289.557C133.397 285.253 137.889 283.838 141.234 286.697C141.374 286.811 141.504 286.935 141.523 286.954V286.944ZM141.663 300.358C143.508 299.389 146.089 297.29 147.347 295.703C148.419 294.345 149.276 292.863 149.146 291.029C149.043 289.557 148.456 288.331 147.077 287.676C145.716 287.039 144.551 287.543 143.508 288.455C143.163 288.749 142.883 289.129 142.567 289.462C142.007 290.051 141.411 290.051 140.843 289.471C140.488 289.11 140.172 288.711 139.79 288.379C137.702 286.574 135.084 287.41 134.385 290.117C133.891 292.008 134.543 293.642 135.615 295.124C137.227 297.356 139.389 298.924 141.653 300.339L141.663 300.358Z" fill="#465FB3"/>
<path d="M300.182 482.422C295.992 483.64 293.331 479.763 294.567 476.527C290.503 474.861 288.02 471.893 288.02 467.322C288.02 462.751 290.44 459.75 294.525 458.073C293.237 454.111 296.673 451.004 300.151 452.178C300.811 450.705 301.858 449.658 303.503 449.359C305.116 449.071 306.447 449.615 307.547 450.801C310.186 448.174 313.759 449.178 315.026 452.178C316.765 451.666 318.389 451.879 319.688 453.278C320.966 454.645 321.196 456.269 320.599 458.052C324.852 459.804 327.209 462.922 327.178 467.621C327.157 471.487 325.156 474.082 320.61 476.538C321.175 478.3 320.997 479.956 319.656 481.333C318.357 482.668 316.776 482.967 315.047 482.401C313.528 485.765 309.82 486.171 307.588 483.789C306.447 484.911 305.127 485.552 303.482 485.231C301.869 484.911 300.832 483.918 300.182 482.444V482.422ZM306.614 459.718C306.614 457.721 306.614 455.777 306.614 453.834C306.614 452.381 305.588 451.281 304.289 451.271C303 451.271 302.047 452.275 301.911 453.727C301.879 454.058 301.775 454.464 301.544 454.677C301.073 455.137 300.601 454.923 300.13 454.539C299.093 453.695 297.815 453.748 296.956 454.635C296.065 455.553 296.023 456.792 296.851 457.871C297.626 458.885 297.354 459.569 296.086 459.814C292.546 460.498 289.979 463.648 289.99 467.311C289.99 470.974 292.556 474.082 296.128 474.755C297.354 474.99 297.605 475.705 296.82 476.73C296.034 477.756 296.076 479.026 296.935 479.902C297.815 480.81 299.061 480.842 300.13 480.084C300.455 479.849 301.031 479.656 301.335 479.785C301.638 479.923 301.869 480.489 301.911 480.885C302.078 482.294 303.063 483.33 304.341 483.287C305.619 483.245 306.604 482.166 306.625 480.756C306.635 479.464 306.625 478.161 306.625 476.869C306.625 476.175 306.625 475.492 306.625 474.829C303.828 474.285 301.879 472.79 300.748 470.237C300.465 469.607 300.381 468.689 299.92 468.39C299.397 468.069 298.538 468.336 297.825 468.294C297.375 468.272 297.165 468.432 296.998 468.87C296.558 470.077 295.709 470.899 294.515 471.337C293.729 471.626 293.226 471.455 293.006 470.814C292.797 470.205 293.048 469.821 293.782 469.447C294.18 469.244 294.599 468.988 294.861 468.635C295.835 467.354 295.301 465.795 293.698 465.079C293.038 464.78 292.787 464.31 293.006 463.734C293.226 463.157 293.719 462.965 294.379 463.178C295.311 463.477 296.222 463.979 296.547 464.887C297.05 466.297 298.003 466.425 299.187 466.286C299.365 466.265 299.564 466.339 299.711 466.265C299.92 466.168 300.235 466.008 300.277 465.827C301.062 462.399 303.22 460.444 306.614 459.697V459.718ZM308.594 474.851C308.594 476.826 308.594 478.791 308.594 480.767C308.594 482.177 309.568 483.255 310.857 483.298C312.145 483.341 313.099 482.348 313.266 480.906C313.319 480.5 313.56 479.945 313.863 479.795C314.167 479.656 314.743 479.838 315.068 480.073C316.157 480.842 317.394 480.831 318.253 479.923C319.122 479.016 319.164 477.745 318.347 476.677C317.603 475.716 317.875 474.979 319.059 474.755C322.631 474.071 325.219 470.974 325.24 467.332C325.261 463.744 322.715 460.562 319.227 459.825C317.802 459.526 317.582 458.938 318.441 457.774C319.415 456.461 318.881 454.592 317.373 454.079C316.514 453.78 315.749 453.983 315.016 454.539C314.722 454.763 314.178 454.912 313.874 454.784C313.57 454.645 313.434 454.133 313.256 453.77C313.193 453.642 313.235 453.46 313.203 453.31C313.046 452.146 311.999 451.249 310.867 451.281C309.725 451.324 308.646 452.275 308.615 453.417C308.563 455.51 308.605 457.614 308.605 459.729C308.908 459.814 309.17 459.878 309.432 459.953C311.821 460.604 313.497 462.11 314.471 464.417C314.733 465.036 314.806 465.944 315.257 466.211C315.791 466.532 316.639 466.275 317.352 466.307C317.792 466.329 318.022 466.19 318.19 465.741C318.651 464.481 319.531 463.627 320.788 463.2C321.448 462.975 321.992 463.178 322.181 463.712C322.39 464.278 322.149 464.834 321.51 465.068C320.505 465.453 319.897 466.126 319.887 467.258C319.887 468.422 320.484 469.116 321.521 469.511C322.149 469.746 322.411 470.333 322.16 470.878C321.888 471.465 321.406 471.594 320.819 471.401C319.866 471.081 318.923 470.558 318.609 469.629C318.127 468.23 317.205 468.187 316.084 468.304C315.885 468.326 315.644 468.24 315.477 468.326C315.246 468.432 314.932 468.614 314.89 468.828C314.083 472.181 311.957 474.093 308.594 474.851ZM302.162 467.311C302.162 470.376 304.582 472.854 307.578 472.864C310.584 472.875 313.046 470.355 313.036 467.268C313.036 464.225 310.595 461.726 307.609 461.704C304.603 461.683 302.152 464.203 302.162 467.3V467.311Z" fill="#509CD8"/>
<path d="M310.459 490.624C310.124 490.443 309.966 490.368 309.82 490.272C309.327 489.962 309.223 489.492 309.422 488.99C309.621 488.499 310.092 488.264 310.553 488.457C311.862 489.012 313.161 489.599 314.429 490.251C314.984 490.539 315.016 491.212 314.555 491.724C313.675 492.696 312.753 493.625 311.81 494.544C311.391 494.96 310.867 494.982 310.438 494.565C310.008 494.149 310.008 493.657 310.375 493.177C310.48 493.038 310.574 492.899 310.721 492.696C307.306 493.059 303.995 492.931 300.779 491.906C291.079 488.788 284.857 482.22 282.981 472C281.096 461.715 284.574 453.268 292.587 446.743C293.027 446.39 293.478 446.22 293.981 446.551C294.567 446.935 294.525 447.693 293.907 448.249C292.828 449.231 291.666 450.139 290.681 451.207C287.13 455.073 285.087 459.676 284.595 464.962C283.453 477.403 291.592 488.339 303.681 490.443C305.661 490.785 307.725 490.667 309.757 490.742C309.925 490.742 310.092 490.678 310.459 490.603V490.624Z" fill="#509CD8"/>
<path d="M294.473 428.182C296.966 428.182 299.459 428.182 301.953 428.182C304.624 428.182 306.667 430.093 306.698 432.795C306.761 437.665 306.729 442.546 306.698 447.415C306.698 447.8 306.394 448.377 306.08 448.515C305.766 448.654 305.169 448.462 304.875 448.206C303.828 447.309 302.843 446.326 301.837 445.365C300.926 444.489 299.868 444.051 298.6 444.051C294.787 444.073 290.974 444.073 287.161 444.051C284.72 444.041 282.803 442.588 282.279 440.388C282.206 440.068 282.185 439.726 282.185 439.384C282.185 437.185 282.175 434.974 282.185 432.774C282.196 430.254 284.217 428.192 286.7 428.171C289.298 428.15 291.886 428.171 294.484 428.171L294.473 428.182ZM304.624 445.226C304.676 445.045 304.718 444.948 304.718 444.852C304.718 440.826 304.739 436.811 304.718 432.785C304.718 431.556 304.037 430.734 302.916 430.36C302.445 430.2 301.921 430.157 301.418 430.157C296.757 430.147 292.106 430.157 287.444 430.157C287.109 430.157 286.784 430.168 286.459 430.222C285.087 430.414 284.176 431.471 284.176 432.881C284.176 435.038 284.176 437.185 284.176 439.342C284.176 440.42 284.668 441.211 285.579 441.638C286.134 441.894 286.794 442.033 287.413 442.033C291.205 442.065 294.997 442.054 298.789 442.054C300.444 442.054 301.858 442.642 303.073 443.784C303.576 444.254 304.079 444.713 304.645 445.226H304.624Z" fill="#509CD8"/>
<path d="M320.945 428.182C323.438 428.182 325.931 428.182 328.424 428.182C331.232 428.182 333.191 430.168 333.191 432.998C333.191 434.974 333.096 436.949 333.212 438.914C333.39 441.958 330.991 444.083 328.141 444.072C324.423 444.062 320.714 444.094 316.995 444.051C315.55 444.03 314.377 444.51 313.36 445.525C312.46 446.433 311.527 447.33 310.553 448.152C310.228 448.419 309.61 448.643 309.285 448.494C308.971 448.355 308.688 447.725 308.678 447.319C308.636 442.524 308.626 437.718 308.657 432.913C308.678 430.136 310.7 428.171 313.444 428.171C315.937 428.171 318.431 428.171 320.924 428.171L320.945 428.182ZM310.647 445.322C311.108 444.905 311.433 444.649 311.705 444.35C313.298 442.588 315.267 441.947 317.603 442.022C321.091 442.118 324.58 442.054 328.058 442.043C330.153 442.043 331.2 440.954 331.211 438.861C331.211 436.992 331.211 435.123 331.211 433.254C331.211 431.257 330.258 430.189 328.299 430.179C323.386 430.147 318.473 430.136 313.559 430.179C311.622 430.189 310.647 431.3 310.637 433.276C310.637 436.725 310.637 440.175 310.637 443.624C310.637 444.115 310.637 444.596 310.637 445.322H310.647Z" fill="#509CD8"/>
<path d="M323.888 450.715C323.93 450.886 323.993 451.057 324.004 451.239C324.046 451.794 323.836 452.21 323.281 452.36C322.726 452.509 322.275 452.296 322.118 451.762C321.72 450.427 321.374 449.071 321.06 447.714C320.924 447.116 321.385 446.55 322.013 446.593C323.354 446.679 324.695 446.807 326.036 446.978C326.623 447.052 326.947 447.49 326.874 448.078C326.801 448.665 326.413 448.975 325.805 448.943C325.627 448.943 325.46 448.943 325.208 448.943C325.994 449.872 326.769 450.715 327.461 451.634C331.127 456.461 332.971 461.971 332.698 468.059C332.279 477.51 327.974 484.708 319.981 489.567C319.688 489.748 319.227 489.877 318.933 489.759C318.64 489.652 318.294 489.215 318.305 488.915C318.305 488.574 318.588 488.147 318.871 487.922C319.971 487.089 321.196 486.417 322.244 485.53C327.241 481.312 330.09 475.897 330.635 469.287C331.2 462.441 329.126 456.482 324.674 451.356C324.465 451.11 324.286 450.822 324.098 450.566C324.035 450.619 323.972 450.673 323.92 450.726L323.888 450.715Z" fill="#509CD8"/>
<path d="M294.484 434.771C292.346 434.771 290.209 434.771 288.083 434.771C287.161 434.771 286.753 434.451 286.763 433.767C286.763 433.095 287.213 432.742 288.104 432.742C292.326 432.742 296.547 432.742 300.758 432.742C300.832 432.742 300.915 432.742 300.989 432.742C301.722 432.796 302.194 433.212 302.131 433.821C302.057 434.504 301.628 434.782 300.978 434.782C298.82 434.782 296.662 434.782 294.494 434.782L294.484 434.771Z" fill="#509CD8"/>
<path d="M295.678 439.406C293.949 439.406 292.221 439.406 290.492 439.406C289.675 439.406 289.214 439.032 289.214 438.402C289.214 437.783 289.696 437.388 290.482 437.377C293.939 437.377 297.396 437.377 300.853 437.377C301.638 437.377 302.131 437.772 302.141 438.381C302.141 438.99 301.659 439.395 300.863 439.395C299.135 439.395 297.406 439.395 295.678 439.395V439.406Z" fill="#509CD8"/>
<path d="M320.976 434.771C318.839 434.771 316.702 434.771 314.576 434.771C313.696 434.771 313.235 434.397 313.245 433.746C313.266 433.105 313.748 432.731 314.618 432.731C318.839 432.731 323.061 432.731 327.272 432.731C327.377 432.731 327.471 432.731 327.576 432.731C328.257 432.806 328.655 433.212 328.613 433.821C328.561 434.494 328.152 434.761 327.534 434.761C325.345 434.761 323.166 434.761 320.976 434.761V434.771Z" fill="#509CD8"/>
<path d="M319.593 439.406C317.886 439.406 316.189 439.406 314.481 439.406C313.706 439.406 313.214 438.989 313.235 438.37C313.256 437.782 313.727 437.387 314.46 437.387C317.938 437.387 321.427 437.387 324.905 437.387C325.68 437.387 326.172 437.814 326.151 438.434C326.13 439.043 325.69 439.406 324.925 439.406C323.145 439.406 321.364 439.406 319.593 439.406Z" fill="#509CD8"/>
<path d="M301.103 804.283C301.889 805.312 302.613 806.3 303.378 807.267C304.071 808.14 304.591 809.066 304.275 810.241C304.02 811.176 303.368 811.8 302.562 812.216C301.909 812.549 301.807 812.996 301.95 813.661C302.072 814.223 302.287 814.867 302.134 815.366C301.93 816.032 301.399 816.593 301.042 817.134C301.267 817.727 301.675 818.371 301.726 819.037C301.766 819.546 301.511 820.232 301.144 820.596C300.522 821.22 300.369 821.938 300.298 822.728C300.267 823.04 300.288 823.362 300.277 823.674C300.237 825.296 299.37 826.388 297.779 826.44C296.29 826.492 294.78 826.294 293.291 826.128C291.649 825.941 290.048 825.837 288.651 826.949C287.498 827.864 287.019 829.174 286.703 830.557C286.386 831.94 286.284 832.054 284.887 832.054C278.023 832.054 271.16 832.054 264.306 832.054C262.888 832.054 262.49 831.389 263.102 830.068C264.581 826.845 265.825 823.528 266.223 819.972C266.427 818.101 266.366 816.188 266.284 814.296C266.233 813.162 265.55 812.237 264.857 811.363C255.341 799.355 261.511 781.409 276.29 778.165C278.095 777.77 279.931 777.614 281.777 777.79C282.144 777.832 282.572 777.728 282.909 777.551C289.874 773.923 296.8 770.232 303.776 766.634C309.915 763.463 317.218 764.711 322.062 769.66C329.446 777.198 327.702 789.987 318.493 795.081C312.985 798.128 307.366 800.966 301.797 803.898C301.603 804.002 301.409 804.106 301.093 804.283H301.103ZM299.176 805.291C299.053 805.354 298.86 805.437 298.666 805.541C295.361 807.277 292.047 809.003 288.742 810.75C285.438 812.497 281.96 813.069 278.299 812.351C267.937 810.334 262.399 798.762 267.213 789.207C268.804 786.046 271.19 783.696 274.291 782.085C275.463 781.471 276.636 780.858 277.983 780.151C277.636 780.151 277.503 780.13 277.381 780.151C273.964 780.785 270.925 782.241 268.375 784.642C261.185 791.401 260.43 802.38 266.631 810.137C267.896 811.717 268.477 813.485 268.569 815.491C268.742 819.224 268.079 822.821 266.886 826.336C266.488 827.5 266.04 828.644 265.601 829.829H284.653C285.071 828.249 285.673 826.793 286.825 825.66C288.712 823.799 291.027 823.622 293.465 823.944C294.709 824.111 295.963 824.235 297.218 824.339C297.911 824.391 298.156 823.996 298.156 823.279C298.156 821.719 298.35 820.191 299.727 818.985C299.145 818.558 298.635 818.143 298.085 817.779C297.626 817.477 297.309 817.04 297.524 816.541C297.666 816.188 298.085 815.918 298.431 815.71C298.768 815.512 299.186 815.46 299.553 815.304C299.92 815.148 300.053 814.919 299.941 814.451C299.431 812.31 299.931 810.948 301.675 810.23C301.715 810.209 301.746 810.178 301.787 810.157C302.266 809.835 302.358 809.45 301.981 808.962C301.052 807.756 300.135 806.539 299.176 805.281V805.291ZM300.298 802.214C300.859 801.923 301.287 801.704 301.705 801.476C306.958 798.71 312.251 796.017 317.463 793.168C322.786 790.267 325.54 783.904 324.194 778.03C322.123 769.005 312.659 764.471 304.551 768.662C299.257 771.396 293.995 774.203 288.712 776.969C287.794 777.447 286.876 777.936 285.866 778.466C286.081 778.56 286.193 778.612 286.305 778.653C295.341 781.731 300.869 790.101 300.288 799.822C300.247 800.561 300.288 801.309 300.288 802.214H300.298ZM298.176 803.337C298.176 801.933 298.197 800.685 298.176 799.427C298.156 798.211 298.187 796.974 298.034 795.778C296.983 787.845 291.068 781.554 283.388 780.182C283.102 780.13 282.745 780.14 282.49 780.275C279.788 781.669 277.044 783.01 274.403 784.538C266.703 789.009 265.285 799.895 271.506 806.321C275.759 810.708 282.134 811.727 287.621 808.889C290.221 807.537 292.822 806.165 295.412 804.792C296.392 804.272 297.371 803.763 298.166 803.347L298.176 803.337Z" fill="#39949F"/>
<path d="M303.582 771.188C304.031 771.375 304.408 771.5 304.755 771.677C305.142 771.874 305.499 771.937 305.877 771.677C305.928 771.635 305.989 771.604 306.06 771.594C307.039 771.355 307.682 770.814 307.906 769.764C308.018 769.244 308.488 769.036 308.987 769.026C309.915 769.015 310.854 769.026 311.782 769.026C312.353 769.026 312.832 769.317 312.914 769.878C313.118 771.323 314.372 771.407 315.321 771.843C315.555 771.947 315.974 771.687 316.29 771.542C317.259 771.126 317.483 771.157 318.228 771.916C318.758 772.457 319.288 773.018 319.829 773.548C320.339 774.037 320.492 774.63 320.104 775.191C319.288 776.366 320.206 777.271 320.512 778.269C320.563 778.446 320.951 778.539 321.195 778.633C322.45 779.132 322.521 779.236 322.521 780.619C322.521 781.294 322.501 781.981 322.521 782.657C322.542 783.353 322.276 783.925 321.603 784.039C320.206 784.268 320.196 785.547 319.747 786.483C319.645 786.701 319.9 787.117 320.023 787.419C320.451 788.448 320.42 788.645 319.645 789.446C319.125 789.976 318.595 790.486 318.095 791.037C317.605 791.577 317.044 791.785 316.443 791.349C315.29 790.517 314.403 791.463 313.444 791.775C313.22 791.848 313.138 792.388 313.006 792.721C312.639 793.647 312.465 793.782 311.476 793.782C310.721 793.782 309.966 793.782 309.212 793.782C308.273 793.782 307.967 793.657 307.763 792.732C307.457 791.349 306.203 791.432 305.336 790.964C305.122 790.85 304.643 791.182 304.316 791.359C303.674 791.713 303.143 791.588 302.644 791.058C302.083 790.455 301.491 789.862 300.9 789.28C300.4 788.791 300.216 788.23 300.624 787.647C301.461 786.483 300.553 785.568 300.216 784.59C300.124 784.341 299.594 784.227 299.237 784.102C298.533 783.863 298.197 783.416 298.238 782.636C298.278 781.825 298.278 781.003 298.238 780.192C298.207 779.454 298.462 778.913 299.186 778.789C300.583 778.55 300.543 777.229 301.002 776.314C301.114 776.085 300.798 775.607 300.624 775.274C300.257 774.588 300.39 774.048 300.94 773.528C301.563 772.945 302.123 772.301 302.746 771.719C302.97 771.5 303.286 771.375 303.551 771.219L303.582 771.188ZM303.99 773.725C303.419 773.767 302.766 774.827 303.021 775.274C303.429 776.023 303.429 776.688 302.96 777.427C302.664 777.895 302.45 778.446 302.327 778.986C302.164 779.745 301.767 780.213 301.053 780.369C300.41 780.504 300.41 780.92 300.39 781.461C300.369 782.033 300.532 782.334 301.083 782.469C301.777 782.636 302.154 783.083 302.317 783.811C302.44 784.372 302.674 784.934 302.97 785.433C303.388 786.119 303.47 786.774 303.041 787.46C302.756 787.907 302.837 788.219 303.235 788.552C303.602 788.853 303.847 789.342 304.449 788.916C305.091 788.458 305.754 788.531 306.427 788.968C306.886 789.269 307.417 789.508 307.947 789.612C308.753 789.779 309.222 790.215 309.385 791.006C309.518 791.671 309.987 791.577 310.446 791.598C310.905 791.619 311.251 791.577 311.374 791.016C311.537 790.247 312.006 789.789 312.812 789.623C313.342 789.519 313.873 789.269 314.332 788.978C315.005 788.541 315.647 788.458 316.31 788.916C316.8 789.248 317.085 789.02 317.432 788.666C317.789 788.302 318.075 788.001 317.728 787.471C317.289 786.795 317.371 786.14 317.789 785.453C318.064 784.996 318.279 784.476 318.391 783.967C318.574 783.156 318.982 782.615 319.788 782.449C320.359 782.334 320.4 781.939 320.39 781.44C320.39 780.962 320.39 780.556 319.798 780.432C318.992 780.265 318.584 779.724 318.391 778.913C318.258 778.352 318.013 777.801 317.728 777.302C317.371 776.699 317.299 776.117 317.656 775.524C317.983 774.994 317.881 774.64 317.442 774.203C317.014 773.777 316.687 773.694 316.188 774.006C315.606 774.38 315.045 774.328 314.444 773.954C313.944 773.642 313.373 773.393 312.802 773.247C312.027 773.06 311.517 772.633 311.364 771.854C311.241 771.261 310.874 771.23 310.395 771.219C309.875 771.219 309.487 771.271 309.365 771.874C309.201 772.675 308.692 773.06 307.916 773.257C307.325 773.413 306.754 773.694 306.213 773.996C305.673 774.297 305.183 774.349 304.643 774.058C304.408 773.933 304.163 773.84 303.969 773.756L303.99 773.725Z" fill="#39949F"/>
<path d="M288.773 806.477C288.294 806.279 287.896 806.071 287.478 805.967C287.192 805.895 286.866 805.947 286.56 805.967C286.478 805.967 286.407 806.061 286.315 806.082C285.346 806.321 284.683 806.841 284.459 807.901C284.347 808.411 283.888 808.64 283.388 808.65C282.46 808.66 281.522 808.65 280.594 808.65C279.951 808.65 279.492 808.296 279.4 807.683C279.176 806.248 277.891 806.269 276.983 805.832C276.749 805.718 276.29 806.03 275.953 806.196C275.29 806.529 274.739 806.435 274.229 805.863C273.679 805.24 273.087 804.657 272.485 804.086C272.026 803.638 271.833 803.077 272.21 802.568C273.087 801.382 272.169 800.446 271.853 799.448C271.782 799.22 271.262 799.116 270.935 798.98C269.976 798.596 269.864 798.429 269.864 797.369C269.864 796.579 269.885 795.778 269.864 794.988C269.844 794.27 270.129 793.74 270.803 793.636C272.22 793.407 272.159 792.077 272.638 791.172C272.751 790.954 272.434 790.465 272.261 790.132C271.904 789.456 272.006 788.895 272.567 788.375C273.159 787.824 273.719 787.242 274.26 786.649C274.75 786.109 275.331 785.932 275.912 786.358C277.065 787.2 277.952 786.244 278.901 785.911C279.135 785.828 279.247 785.266 279.359 784.902C279.574 784.195 280.012 783.883 280.747 783.904C281.593 783.935 282.429 783.925 283.276 783.904C283.908 783.894 284.439 784.143 284.53 784.778C284.744 786.244 286.03 786.264 286.958 786.732C287.192 786.847 287.641 786.524 287.988 786.379C288.865 786.005 289.089 786.036 289.752 786.712C290.323 787.283 290.864 787.876 291.455 788.438C291.976 788.926 292.108 789.519 291.721 790.08C290.894 791.266 291.823 792.17 292.149 793.137C292.23 793.376 292.781 793.491 293.138 793.605C293.852 793.844 294.158 794.322 294.138 795.081C294.117 795.892 294.127 796.714 294.138 797.525C294.138 798.221 293.883 798.772 293.199 798.887C291.812 799.126 291.812 800.415 291.353 801.341C291.262 801.517 291.496 801.881 291.598 802.141C292.108 803.327 292.088 803.462 291.17 804.387C290.65 804.917 290.15 805.458 289.609 805.967C289.375 806.186 289.069 806.311 288.793 806.477H288.773ZM289.518 802.817C289.456 802.661 289.405 802.464 289.303 802.287C288.895 801.611 288.957 800.998 289.354 800.322C289.66 799.802 289.875 799.22 290.028 798.637C290.211 797.93 290.578 797.462 291.282 797.306C291.823 797.182 292.006 796.88 291.996 796.308C291.996 795.747 291.925 795.352 291.302 795.227C290.568 795.071 290.201 794.582 290.017 793.844C289.875 793.283 289.671 792.711 289.365 792.222C288.946 791.526 288.885 790.881 289.324 790.205C289.681 789.654 289.324 789.363 288.997 789.009C288.671 788.656 288.396 788.458 287.927 788.77C287.243 789.238 286.58 789.155 285.887 788.697C285.448 788.406 284.938 788.178 284.428 788.074C283.633 787.907 283.133 787.491 282.98 786.701C282.858 786.098 282.48 786.077 282.001 786.077C281.501 786.077 281.083 786.077 280.961 786.712C280.808 787.471 280.328 787.886 279.563 788.063C278.992 788.198 278.431 788.469 277.921 788.77C277.33 789.124 276.769 789.217 276.177 788.843C275.708 788.542 275.351 788.542 274.923 789.02C274.535 789.456 274.301 789.789 274.678 790.34C275.096 790.954 274.964 791.546 274.597 792.17C274.301 792.669 274.046 793.22 273.934 793.782C273.76 794.593 273.342 795.081 272.567 795.248C271.873 795.393 272.026 795.924 271.986 796.402C271.945 796.88 272.088 797.151 272.577 797.265C273.342 797.442 273.77 797.92 273.934 798.741C274.046 799.303 274.301 799.864 274.607 800.353C275.015 801.008 275.056 801.621 274.658 802.256C274.372 802.713 274.433 803.035 274.831 803.42C275.239 803.815 275.565 804.086 276.126 803.711C276.718 803.316 277.309 803.379 277.932 803.763C278.421 804.065 278.962 804.314 279.512 804.439C280.288 804.626 280.818 805.011 280.961 805.811C281.083 806.435 281.481 806.456 281.991 806.477C282.531 806.498 282.868 806.363 282.99 805.78C283.143 805.042 283.623 804.647 284.347 804.47C284.857 804.345 285.387 804.169 285.815 803.878C286.57 803.358 287.274 803.358 288.049 803.805C288.457 804.034 289.487 803.347 289.518 802.827V802.817Z" fill="#39949F"/>
<path d="M304.112 781.419C304.102 777.863 306.907 774.983 310.385 774.973C313.822 774.973 316.667 777.842 316.677 781.336C316.698 784.913 313.852 787.824 310.364 787.803C306.897 787.782 304.133 784.954 304.112 781.419ZM306.254 781.409C306.254 783.769 308.08 785.62 310.395 785.609C312.689 785.609 314.546 783.717 314.535 781.377C314.535 779.069 312.638 777.146 310.364 777.156C308.09 777.156 306.244 779.069 306.244 781.409H306.254Z" fill="#39949F"/>
<path d="M281.756 789.862C285.112 789.654 288.08 792.44 288.273 795.986C288.457 799.427 285.734 802.484 282.297 802.681C278.809 802.879 275.902 800.134 275.688 796.443C275.494 793.033 278.197 790.09 281.756 789.872V789.862ZM282.062 792.045C279.757 791.993 277.901 793.802 277.83 796.173C277.758 798.471 279.604 800.436 281.889 800.498C284.133 800.56 286.06 798.678 286.132 796.349C286.203 794.062 284.347 792.107 282.062 792.045Z" fill="#39949F"/>
<path d="M74.4061 631.643C73.4084 630.736 72.9877 629.682 73.2762 628.371C72.7834 628.249 72.3026 628.151 71.8458 628.016C69.6822 627.366 68.7567 625.663 69.55 623.507C69.9346 622.44 70.5957 621.472 71.1847 620.504C72.0141 619.144 72.9516 617.857 73.757 616.473C74.947 614.426 75.5359 612.208 75.4638 609.807C75.3556 606.143 75.9326 602.601 77.387 599.232C79.5266 594.281 83.0244 590.568 87.4958 587.762C92.2077 584.797 97.3643 583.228 102.869 582.86C108.867 582.456 114.589 583.473 119.842 586.537C126.152 590.213 129.842 595.837 131.405 602.994C132.871 609.684 131.453 615.811 127.847 621.485C126.705 623.286 125.503 625.051 124.241 626.778C120.527 631.864 119.854 637.402 121.753 643.346C122.161 644.608 122.606 645.858 123.063 647.107C124.061 649.816 122.378 652.328 119.541 652.328C110.767 652.328 102.004 652.328 93.2294 652.328C91.3783 652.328 90.02 651.249 89.5633 649.423C89.2027 648.002 88.8301 646.581 88.5416 645.147C88.4214 644.583 88.193 644.534 87.7242 644.62C85.3443 645.086 82.9523 645.404 80.5242 645.245C79.6708 645.184 78.7934 645.037 77.988 644.767C75.4638 643.909 74.3099 641.691 74.8508 638.885C74.8748 638.775 74.8869 638.665 74.9229 638.554C75.1032 637.905 75.4879 637.206 75.3917 636.606C75.2955 636.067 74.6104 635.662 74.2618 635.135C73.4925 633.971 73.5647 632.807 74.4061 631.643ZM106.439 650.159C110.767 650.159 115.094 650.159 119.421 650.159C120.947 650.159 121.548 649.215 121.02 647.745C120.479 646.237 119.938 644.73 119.493 643.199C117.726 637.084 118.423 631.361 122.113 626.117C123.424 624.242 124.734 622.355 125.972 620.431C129.361 615.174 130.684 609.488 129.265 603.251C127.823 596.891 124.553 591.855 118.952 588.534C115.022 586.206 110.706 585.14 106.199 584.98C100.213 584.772 94.5876 586.169 89.371 589.183C85.1159 591.634 81.7383 594.967 79.5987 599.513C78.0962 602.712 77.4712 606.106 77.5914 609.647C77.6995 612.809 76.8101 615.664 75.1874 618.311C74.382 619.61 73.4805 620.835 72.6511 622.134C72.2304 622.796 71.8338 623.482 71.5573 624.205C71.1727 625.198 71.4491 625.737 72.4708 625.957C73.3363 626.141 74.2258 626.19 75.1032 626.264C75.8004 626.325 76.3293 626.693 76.2932 627.281C76.2692 627.648 76.0408 628.04 75.8004 628.322C75.1152 629.131 75.1393 629.584 76.0167 630.185C76.197 630.307 76.4014 630.405 76.6057 630.491C77.0745 630.675 77.4111 630.957 77.4471 631.508C77.4832 632.096 77.1346 632.378 76.6899 632.66C76.3653 632.868 75.8845 633.261 75.9086 633.53C75.9446 633.898 76.3773 634.229 76.6658 634.547C76.762 634.658 76.9303 634.694 77.0745 634.768C77.9279 635.172 78.0722 635.589 77.7717 636.508C77.4712 637.378 77.1586 638.26 76.9663 639.155C76.5216 641.287 77.2909 642.488 79.3222 642.929C79.8151 643.039 80.3319 643.088 80.8368 643.113C83.4932 643.248 86.0895 642.757 88.6858 642.267C89.6114 642.096 90.008 642.328 90.2364 643.248C90.6811 645.037 91.1018 646.838 91.5346 648.639C91.823 649.865 92.2317 650.195 93.4938 650.195C97.797 650.195 102.112 650.195 106.415 650.195L106.439 650.159Z" fill="#5CCCD8"/>
<path d="M103.795 589.526C114.481 589.55 123.075 598.349 123.039 609.218C123.003 620.112 114.373 628.861 103.711 628.836C93.049 628.812 84.4427 619.977 84.4908 609.108C84.5389 598.251 93.1572 589.501 103.783 589.538L103.795 589.526ZM103.747 591.707C94.227 591.744 86.6063 599.562 86.6424 609.255C86.6784 618.911 94.3472 626.68 103.843 626.655C113.291 626.643 120.947 618.788 120.923 609.132C120.899 599.464 113.231 591.67 103.759 591.707H103.747Z" fill="#5CCCD8"/>
<path d="M103.735 621.631C100.67 621.631 97.6046 621.631 94.5515 621.631C92.6403 621.631 91.5585 620.516 91.5465 618.556C91.5465 612.282 91.5465 606.02 91.5465 599.746C91.5465 597.822 92.6283 596.707 94.5154 596.695C100.682 596.695 106.86 596.695 113.026 596.695C114.913 596.695 115.995 597.81 115.995 599.746C115.995 606.032 115.995 612.331 115.995 618.617C115.995 620.529 114.877 621.619 112.99 621.619C109.901 621.619 106.824 621.619 103.735 621.619V621.631ZM102.713 619.463C102.713 618.703 102.713 618.053 102.713 617.404C102.713 615.909 103.314 615.529 104.612 616.166C105.586 616.644 106.692 615.97 106.704 614.88C106.704 613.728 105.55 613.09 104.504 613.654C103.47 614.206 102.749 613.789 102.713 612.613C102.701 612.098 102.713 611.571 102.713 611.056C102.701 610.456 102.389 610.223 101.812 610.321C101.403 613.066 100.249 614.34 98.1936 614.34C96.1502 614.34 94.9842 613.054 94.5755 610.321H93.6981C93.6981 613.213 93.6861 616.056 93.7221 618.899C93.7221 619.095 94.1308 619.426 94.3832 619.45C95.0203 619.536 95.6694 619.475 96.3064 619.475C98.4099 619.475 100.513 619.475 102.713 619.475V619.463ZM104.877 619.414C105.081 619.426 105.249 619.45 105.418 619.45C107.93 619.45 110.43 619.45 112.942 619.45C113.735 619.45 113.856 619.315 113.856 618.482C113.856 615.921 113.856 613.372 113.856 610.811C113.856 610.64 113.82 610.468 113.796 610.235C112.99 610.235 112.209 610.284 111.44 610.211C111.091 610.174 110.598 609.954 110.478 609.672C110.334 609.329 110.418 608.802 110.574 608.422C110.959 607.527 110.694 606.571 109.865 606.265C109.264 606.045 108.711 606.167 108.29 606.657C107.822 607.196 107.822 607.797 108.146 608.41C108.687 609.451 108.266 610.199 107.124 610.223C106.62 610.223 106.103 610.211 105.598 610.223C105.021 610.248 104.756 610.554 104.901 611.154C107.473 611.497 108.807 612.649 108.795 614.72C108.795 615.48 108.495 616.326 108.086 616.987C107.377 618.139 106.187 618.531 104.865 618.482V619.377L104.877 619.414ZM93.6861 608.066C94.1428 608.066 94.5154 608.066 94.8881 608.066C95.2607 608.066 95.6453 608.054 96.0179 608.066C97.0757 608.115 97.5084 608.9 97.0276 609.843C96.5949 610.676 96.6911 611.363 97.3041 611.853C97.8089 612.257 98.6022 612.245 99.0951 611.828C99.648 611.363 99.7441 610.627 99.3595 609.868C98.8426 608.887 99.2994 608.103 100.393 608.079C100.898 608.066 101.415 608.079 101.92 608.079C102.533 608.079 102.737 607.748 102.665 607.172C100.009 606.78 98.6984 605.567 98.6984 603.496C98.6984 601.425 99.9845 600.224 102.665 599.795V598.901C99.8523 598.901 97.0757 598.888 94.3111 598.925C94.1068 598.925 93.7221 599.329 93.7221 599.55C93.6861 602.356 93.6981 605.162 93.6981 608.066H93.6861ZM113.832 608.042C113.832 607.834 113.856 607.613 113.856 607.405C113.856 604.917 113.856 602.43 113.856 599.942C113.856 599.011 113.735 598.888 112.81 598.888C110.37 598.888 107.93 598.888 105.49 598.888C105.297 598.888 105.105 598.913 104.937 598.937C104.901 599.023 104.877 599.072 104.877 599.109C104.877 599.807 104.877 600.506 104.853 601.216C104.817 602.393 104.083 602.822 103.062 602.283C102.328 601.89 101.595 602.013 101.15 602.601C100.754 603.116 100.766 603.925 101.175 604.427C101.631 605.003 102.34 605.101 103.098 604.697C104.071 604.17 104.817 604.611 104.865 605.738C104.889 606.253 104.865 606.78 104.865 607.294C104.865 607.907 105.153 608.164 105.754 608.054C106.199 605.309 107.365 604.023 109.36 604.01C111.355 604.01 112.569 605.346 112.99 608.054H113.844L113.832 608.042Z" fill="#5CCCD8"/>
<path d="M426.073 617.34C426.073 618.813 427.267 620.007 428.739 620.007C430.212 620.007 431.406 618.813 431.406 617.34C431.406 615.868 430.212 614.674 428.739 614.674C427.267 614.674 426.073 615.868 426.073 617.34ZM196.87 617.34V617.84H428.739V617.34V616.84H196.87V617.34Z" fill="#5AC6D7"/>
<path d="M418.781 797.228C418.781 798.701 419.975 799.895 421.448 799.895C422.921 799.895 424.115 798.701 424.115 797.228C424.115 795.755 422.921 794.561 421.448 794.561C419.975 794.561 418.781 795.755 418.781 797.228ZM367.491 797.228V797.728H421.448V797.228V796.728H367.491V797.228Z" fill="#5AC6D7"/>
<path d="M418.781 464.957C418.781 466.429 419.975 467.623 421.448 467.623C422.921 467.623 424.115 466.429 424.115 464.957C424.115 463.484 422.921 462.29 421.448 462.29C419.975 462.29 418.781 463.484 418.781 464.957ZM387.907 464.957L387.907 465.457L421.448 465.457L421.448 464.957L421.448 464.457L387.907 464.457L387.907 464.957Z" fill="#5AC6D7"/>
<path d="M438.468 135.659C438.468 137.131 439.662 138.325 441.135 138.325C442.608 138.325 443.802 137.131 443.802 135.659C443.802 134.186 442.608 132.992 441.135 132.992C439.662 132.992 438.468 134.186 438.468 135.659ZM407.594 135.659L407.594 136.159L441.135 136.159L441.135 135.659L441.135 135.159L407.594 135.159L407.594 135.659Z" fill="#5AC6D7"/>
<path d="M431.906 282.839C431.906 284.312 433.1 285.506 434.573 285.506C436.045 285.506 437.239 284.312 437.239 282.839C437.239 281.367 436.045 280.173 434.573 280.173C433.1 280.173 431.906 281.367 431.906 282.839ZM202.703 282.839V283.339H434.573V282.839V282.339H202.703V282.839Z" fill="#5AC6D7"/>
<defs>
<filter id="filter0_d_8_3062" x="261.526" y="66.9121" width="134.829" height="138.856" filterUnits="userSpaceOnUse" color-interpolation-filters="sRGB">
<feFlood flood-opacity="0" result="BackgroundImageFix"/>
<feColorMatrix in="SourceAlpha" type="matrix" values="0 0 0 0 0 0 0 0 0 0 0 0 0 0 0 0 0 0 127 0" result="hardAlpha"/>
<feOffset dx="5" dy="5"/>
<feGaussianBlur stdDeviation="3"/>
<feColorMatrix type="matrix" values="0 0 0 0 0.137255 0 0 0 0 0.121569 0 0 0 0 0.12549 0 0 0 0.5 0"/>
<feBlend mode="normal" in2="BackgroundImageFix" result="effect1_dropShadow_8_3062"/>
<feBlend mode="normal" in="SourceGraphic" in2="effect1_dropShadow_8_3062" result="shape"/>
</filter>
<filter id="filter1_d_8_3062" x="59.5325" y="220.481" width="134.83" height="138.845" filterUnits="userSpaceOnUse" color-interpolation-filters="sRGB">
<feFlood flood-opacity="0" result="BackgroundImageFix"/>
<feColorMatrix in="SourceAlpha" type="matrix" values="0 0 0 0 0 0 0 0 0 0 0 0 0 0 0 0 0 0 127 0" result="hardAlpha"/>
<feOffset dx="5" dy="5"/>
<feGaussianBlur stdDeviation="3"/>
<feColorMatrix type="matrix" values="0 0 0 0 0.137255 0 0 0 0 0.121569 0 0 0 0 0.12549 0 0 0 0.5 0"/>
<feBlend mode="normal" in2="BackgroundImageFix" result="effect1_dropShadow_8_3062"/>
<feBlend mode="normal" in="SourceGraphic" in2="effect1_dropShadow_8_3062" result="shape"/>
</filter>
<filter id="filter2_d_8_3062" x="242.066" y="397.17" width="134.793" height="138.849" filterUnits="userSpaceOnUse" color-interpolation-filters="sRGB">
<feFlood flood-opacity="0" result="BackgroundImageFix"/>
<feColorMatrix in="SourceAlpha" type="matrix" values="0 0 0 0 0 0 0 0 0 0 0 0 0 0 0 0 0 0 127 0" result="hardAlpha"/>
<feOffset dx="5" dy="5"/>
<feGaussianBlur stdDeviation="3"/>
<feColorMatrix type="matrix" values="0 0 0 0 0.137255 0 0 0 0 0.121569 0 0 0 0 0.12549 0 0 0 0.5 0"/>
<feBlend mode="normal" in2="BackgroundImageFix" result="effect1_dropShadow_8_3062"/>
<feBlend mode="normal" in="SourceGraphic" in2="effect1_dropShadow_8_3062" result="shape"/>
</filter>
<filter id="filter3_d_8_3062" x="38.4609" y="553.514" width="134.783" height="138.854" filterUnits="userSpaceOnUse" color-interpolation-filters="sRGB">
<feFlood flood-opacity="0" result="BackgroundImageFix"/>
<feColorMatrix in="SourceAlpha" type="matrix" values="0 0 0 0 0 0 0 0 0 0 0 0 0 0 0 0 0 0 127 0" result="hardAlpha"/>
<feOffset dx="5" dy="5"/>
<feGaussianBlur stdDeviation="3"/>
<feColorMatrix type="matrix" values="0 0 0 0 0.137255 0 0 0 0 0.121569 0 0 0 0 0.12549 0 0 0 0.5 0"/>
<feBlend mode="normal" in2="BackgroundImageFix" result="effect1_dropShadow_8_3062"/>
<feBlend mode="normal" in="SourceGraphic" in2="effect1_dropShadow_8_3062" result="shape"/>
</filter>
<filter id="filter4_d_8_3062" x="222.493" y="731.531" width="134.793" height="138.849" filterUnits="userSpaceOnUse" color-interpolation-filters="sRGB">
<feFlood flood-opacity="0" result="BackgroundImageFix"/>
<feColorMatrix in="SourceAlpha" type="matrix" values="0 0 0 0 0 0 0 0 0 0 0 0 0 0 0 0 0 0 127 0" result="hardAlpha"/>
<feOffset dx="5" dy="5"/>
<feGaussianBlur stdDeviation="3"/>
<feColorMatrix type="matrix" values="0 0 0 0 0.137255 0 0 0 0 0.121569 0 0 0 0 0.12549 0 0 0 0.5 0"/>
<feBlend mode="normal" in2="BackgroundImageFix" result="effect1_dropShadow_8_3062"/>
<feBlend mode="normal" in="SourceGraphic" in2="effect1_dropShadow_8_3062" result="shape"/>
</filter>
<filter id="filter5_d_8_3062" x="176.516" y="44.5601" width="233.023" height="838.536" filterUnits="userSpaceOnUse" color-interpolation-filters="sRGB">
<feFlood flood-opacity="0" result="BackgroundImageFix"/>
<feColorMatrix in="SourceAlpha" type="matrix" values="0 0 0 0 0 0 0 0 0 0 0 0 0 0 0 0 0 0 127 0" result="hardAlpha"/>
<feOffset dx="-2"/>
<feGaussianBlur stdDeviation="2"/>
<feComposite in2="hardAlpha" operator="out"/>
<feColorMatrix type="matrix" values="0 0 0 0 0 0 0 0 0 0 0 0 0 0 0 0 0 0 0.5 0"/>
<feBlend mode="normal" in2="BackgroundImageFix" result="effect1_dropShadow_8_3062"/>
<feBlend mode="normal" in="SourceGraphic" in2="effect1_dropShadow_8_3062" result="shape"/>
</filter>
<filter id="filter6_d_8_3062" x="180.516" y="44.5601" width="233.023" height="838.536" filterUnits="userSpaceOnUse" color-interpolation-filters="sRGB">
<feFlood flood-opacity="0" result="BackgroundImageFix"/>
<feColorMatrix in="SourceAlpha" type="matrix" values="0 0 0 0 0 0 0 0 0 0 0 0 0 0 0 0 0 0 127 0" result="hardAlpha"/>
<feOffset dx="2"/>
<feGaussianBlur stdDeviation="2"/>
<feComposite in2="hardAlpha" operator="out"/>
<feColorMatrix type="matrix" values="0 0 0 0 0 0 0 0 0 0 0 0 0 0 0 0 0 0 0.55 0"/>
<feBlend mode="normal" in2="BackgroundImageFix" result="effect1_dropShadow_8_3062"/>
<feBlend mode="normal" in="SourceGraphic" in2="effect1_dropShadow_8_3062" result="shape"/>
</filter>
<linearGradient id="paint0_linear_8_3062" x1="161.055" y1="903.989" x2="268.75" y2="46.8097" gradientUnits="userSpaceOnUse">
<stop offset="0.06" stop-color="#3F8D9B"/>
<stop offset="0.167725" stop-color="#26A7A9"/>
<stop offset="0.316762" stop-color="#5CCFD7"/>
<stop offset="0.500513" stop-color="#4F9AD8"/>
<stop offset="0.68" stop-color="#4452AB"/>
<stop offset="0.91" stop-color="#494896"/>
</linearGradient>
<linearGradient id="paint1_linear_8_3062" x1="314.169" y1="78.4141" x2="339.77" y2="174.893" gradientUnits="userSpaceOnUse">
<stop offset="0.06" stop-color="#D1D3D4"/>
<stop offset="0.79" stop-color="white"/>
</linearGradient>
<linearGradient id="paint2_linear_8_3062" x1="114.041" y1="231.65" x2="136.134" y2="328.995" gradientUnits="userSpaceOnUse">
<stop offset="0.06" stop-color="#D1D3D4"/>
<stop offset="0.79" stop-color="white"/>
</linearGradient>
<linearGradient id="paint3_linear_8_3062" x1="311.113" y1="408.205" x2="305.357" y2="507.899" gradientUnits="userSpaceOnUse">
<stop offset="0.06" stop-color="#D1D3D4"/>
<stop offset="0.79" stop-color="white"/>
</linearGradient>
<linearGradient id="paint4_linear_8_3062" x1="99.3829" y1="564.144" x2="109.28" y2="663.5" gradientUnits="userSpaceOnUse">
<stop offset="0.06" stop-color="#D1D3D4"/>
<stop offset="0.79" stop-color="white"/>
</linearGradient>
<linearGradient id="paint5_linear_8_3062" x1="291.526" y1="742.567" x2="285.769" y2="842.261" gradientUnits="userSpaceOnUse">
<stop offset="0.06" stop-color="#D1D3D4"/>
<stop offset="0.79" stop-color="white"/>
</linearGradient>
</defs>
</svg>
